<mxfile host="app.diagrams.net" modified="2021-09-07T03:46:59.878Z" agent="5.0 (Windows NT 10.0; Win64; x64) AppleWebKit/537.36 (KHTML, like Gecko) Chrome/92.0.4515.159 Safari/537.36" etag="JKDjJw_Fdg_5AhELH3xU" version="15.0.6" type="github">
  <diagram id="C5RBs43oDa-KdzZeNtuy" name="Page-1">
    <mxGraphModel dx="1038" dy="523" grid="1" gridSize="10" guides="1" tooltips="1" connect="1" arrows="1" fold="1" page="1" pageScale="1" pageWidth="827" pageHeight="1169" math="0" shadow="0">
      <root>
        <mxCell id="WIyWlLk6GJQsqaUBKTNV-0" />
        <mxCell id="WIyWlLk6GJQsqaUBKTNV-1" parent="WIyWlLk6GJQsqaUBKTNV-0" />
        <mxCell id="xP28TKMnfKaPImh_fXf6-4" style="edgeStyle=orthogonalEdgeStyle;rounded=0;orthogonalLoop=1;jettySize=auto;html=1;" edge="1" parent="WIyWlLk6GJQsqaUBKTNV-1" source="xP28TKMnfKaPImh_fXf6-0" target="xP28TKMnfKaPImh_fXf6-7">
          <mxGeometry relative="1" as="geometry">
            <mxPoint x="60" y="170" as="targetPoint" />
          </mxGeometry>
        </mxCell>
        <mxCell id="xP28TKMnfKaPImh_fXf6-0" value="班级管理" style="rounded=0;whiteSpace=wrap;html=1;" vertex="1" parent="WIyWlLk6GJQsqaUBKTNV-1">
          <mxGeometry y="50" width="120" height="60" as="geometry" />
        </mxCell>
        <mxCell id="xP28TKMnfKaPImh_fXf6-1" value="学生管理" style="rounded=0;whiteSpace=wrap;html=1;" vertex="1" parent="WIyWlLk6GJQsqaUBKTNV-1">
          <mxGeometry x="120" y="50" width="120" height="60" as="geometry" />
        </mxCell>
        <mxCell id="xP28TKMnfKaPImh_fXf6-2" value="教师管理" style="rounded=0;whiteSpace=wrap;html=1;" vertex="1" parent="WIyWlLk6GJQsqaUBKTNV-1">
          <mxGeometry x="240" y="50" width="120" height="60" as="geometry" />
        </mxCell>
        <mxCell id="xP28TKMnfKaPImh_fXf6-3" value="常用功能" style="rounded=0;whiteSpace=wrap;html=1;" vertex="1" parent="WIyWlLk6GJQsqaUBKTNV-1">
          <mxGeometry x="354" y="50" width="120" height="60" as="geometry" />
        </mxCell>
        <mxCell id="xP28TKMnfKaPImh_fXf6-5" value="新增按钮" style="text;html=1;align=center;verticalAlign=middle;resizable=0;points=[];autosize=1;strokeColor=none;fillColor=none;" vertex="1" parent="WIyWlLk6GJQsqaUBKTNV-1">
          <mxGeometry x="60" y="130" width="60" height="20" as="geometry" />
        </mxCell>
        <mxCell id="xP28TKMnfKaPImh_fXf6-9" style="edgeStyle=orthogonalEdgeStyle;rounded=0;orthogonalLoop=1;jettySize=auto;html=1;" edge="1" parent="WIyWlLk6GJQsqaUBKTNV-1" source="xP28TKMnfKaPImh_fXf6-7">
          <mxGeometry relative="1" as="geometry">
            <mxPoint x="60" y="240" as="targetPoint" />
          </mxGeometry>
        </mxCell>
        <mxCell id="xP28TKMnfKaPImh_fXf6-7" value="查询导入处理结果" style="rounded=1;whiteSpace=wrap;html=1;" vertex="1" parent="WIyWlLk6GJQsqaUBKTNV-1">
          <mxGeometry x="5" y="170" width="110" height="30" as="geometry" />
        </mxCell>
        <mxCell id="xP28TKMnfKaPImh_fXf6-12" value="弹窗" style="text;html=1;align=center;verticalAlign=middle;resizable=0;points=[];autosize=1;strokeColor=none;fillColor=none;" vertex="1" parent="WIyWlLk6GJQsqaUBKTNV-1">
          <mxGeometry x="70" y="210" width="40" height="20" as="geometry" />
        </mxCell>
        <mxCell id="xP28TKMnfKaPImh_fXf6-14" value="" style="group" vertex="1" connectable="0" parent="WIyWlLk6GJQsqaUBKTNV-1">
          <mxGeometry x="10" y="240" width="440" height="250" as="geometry" />
        </mxCell>
        <mxCell id="xP28TKMnfKaPImh_fXf6-11" value="" style="rounded=1;whiteSpace=wrap;html=1;" vertex="1" parent="xP28TKMnfKaPImh_fXf6-14">
          <mxGeometry width="440" height="250" as="geometry" />
        </mxCell>
        <mxCell id="xP28TKMnfKaPImh_fXf6-13" value="查询全部导入表格操作结果" style="text;html=1;strokeColor=none;fillColor=none;align=center;verticalAlign=middle;whiteSpace=wrap;rounded=0;" vertex="1" parent="xP28TKMnfKaPImh_fXf6-14">
          <mxGeometry x="11.578947368421053" y="12.5" width="185.26315789473685" height="25" as="geometry" />
        </mxCell>
        <mxCell id="xP28TKMnfKaPImh_fXf6-41" value="关闭" style="rounded=1;whiteSpace=wrap;html=1;" vertex="1" parent="xP28TKMnfKaPImh_fXf6-14">
          <mxGeometry x="340" y="220" width="90" height="20" as="geometry" />
        </mxCell>
      </root>
    </mxGraphModel>
  </diagram>
</mxfile>
